<svg width="100" height="101" viewBox="0 0 100 101" fill="none" xmlns="http://www.w3.org/2000/svg">
<g clip-path="url(#clip0_1_15)">
<mask id="mask0_1_15" style="mask-type:luminance" maskUnits="userSpaceOnUse" x="0" y="0" width="100" height="101">
<path d="M100 0.5H0V100.5H100V0.5Z" fill="white"/>
</mask>
<g mask="url(#mask0_1_15)">
<path d="M94.7 29.8002C94.7 28.1002 94.3 26.6002 93.6 25.4002C92.9 24.1002 91.8 23.1002 90.4 22.3002C78.6 15.5002 66.8 8.70016 55 1.80016C51.8 0.000154853 48.7 0.000154734 45.6 1.90016C40.9 4.70016 17.4 18.2002 10.3 22.2002C7.4 23.9002 6 26.5002 6 29.8002C6 43.5002 6 57.2002 6 70.9002C6 72.5002 6.3 74.0002 7 75.2001C7.7 76.5002 8.8 77.6002 10.3 78.4002C17.3 82.5002 40.9 95.9001 45.6 98.7001C48.8 100.6 51.8 100.6 55 98.8002C66.8 92.1002 78.6 85.3002 90.4 78.5002C91.9 77.7001 92.9 76.6002 93.7 75.3002C94.4 74.0002 94.7 72.6002 94.7 71.0002C94.7 70.9002 94.7 43.5002 94.7 29.8002Z" fill="#838383"/>
<path d="M50.5 50.2002L7 75.3002C7.7 76.6002 8.8 77.7002 10.3 78.5002C17.3 82.6002 40.9 96.0002 45.6 98.8002C48.8 100.7 51.8 100.7 55 98.9002C66.8 92.1002 78.6 85.3002 90.4 78.5002C91.9 77.7002 92.9 76.6002 93.7 75.3002L50.5 50.2002Z" fill="#3E3E3E"/>
<path d="M37.6001 57.6002C40.1001 62.0002 44.9001 65.0002 50.3001 65.0002C55.8001 65.0002 60.6001 62.0002 63.1001 57.5002L50.4001 50.2002L37.6001 57.6002Z" fill="#3E3E3E"/>
<path d="M94.7 29.7999C94.7 28.0999 94.3 26.5999 93.6 25.3999L50.5 50.1999L93.7 75.1999C94.4 73.8999 94.7 72.4999 94.7 70.8999C94.7 70.8999 94.7 43.4999 94.7 29.7999Z" fill="#4C4C4C"/>
<path d="M92.4 52.0002H89V55.4002H85.6V52.0002H82.2V48.6002H85.6V45.2002H89V48.6002H92.4V52.0002ZM80 52.0002H76.6V55.4002H73.2V52.0002H69.8V48.6002H73.2V45.2002H76.6V48.6002H80V52.0002Z" fill="white"/>
<path d="M63.2 57.5999C60.7 62.0999 55.9 65.0999 50.4 65.0999C44.9 65.0999 40.2 62.0999 37.7 57.6999C36.4 55.4999 35.8 52.9999 35.8 50.3999C35.8 42.2999 42.4 35.6999 50.5 35.6999C55.9 35.6999 60.6 38.5999 63.2 42.9999L76 35.5999C70.9 26.7999 61.4 20.8999 50.5 20.8999C34.2 20.8999 21 34.0999 21 50.3999C21 55.6999 22.4 60.6999 24.9 65.0999C30 73.8999 39.5 79.8999 50.5 79.8999C61.5 79.8999 71 73.8999 76.1 64.9999L63.2 57.5999Z" fill="white"/>
</g>
</g>
<defs>
<clipPath id="clip0_1_15">
<rect width="100" height="100" fill="white" transform="translate(0 0.5)"/>
</clipPath>
</defs>
</svg>
