<svg width="100" height="101" viewBox="0 0 100 101" fill="none" xmlns="http://www.w3.org/2000/svg">
<g clip-path="url(#clip0_1_64)">
<mask id="mask0_1_64" style="mask-type:luminance" maskUnits="userSpaceOnUse" x="0" y="0" width="100" height="101">
<path d="M100 0.5H0V100.5H100V0.5Z" fill="white"/>
</mask>
<g mask="url(#mask0_1_64)">
<path d="M99 41.5999C98.7 41.3999 96.2 39.4999 90.9 39.4999C89.5 39.4999 88.1 39.5999 86.7 39.8999C85.7 32.7999 79.8 29.3999 79.5 29.1999L78.1 28.3999L77.2 29.7999C76 31.5999 75.2 33.5999 74.7 35.7999C73.7 39.7999 74.3 43.5999 76.4 46.8999C73.9 48.2999 69.9 48.5999 69.1 48.6999H3.09999C1.39999 48.4999 -8.37911e-06 49.8999 -8.37911e-06 51.5999C-0.100008 57.2999 0.899992 63.0999 2.89999 68.4999C5.19999 74.4999 8.49999 78.7999 12.9 81.4999C17.8 84.4999 25.8 86.1999 34.9 86.1999C39 86.1999 43.1 85.7999 47.1 85.0999C52.7 84.0999 58.1 82.0999 63 79.2999C67.1 76.8999 70.8 73.8999 73.9 70.3999C79.1 64.4999 82.2 57.8999 84.5 52.0999H85.4C91.1 52.0999 94.6 49.7999 96.6 47.8999C97.9 46.6999 98.9 45.1999 99.5 43.4999L99.9 42.2999L99 41.5999Z" fill="#7D7D7D"/>
<path d="M9.1999 46.5H17.9999C18.3999 46.5 18.7999 46.2 18.7999 45.7V37.8C18.7999 37.4 18.4999 37 17.9999 37H9.1999C8.7999 37 8.3999 37.3 8.3999 37.8V45.7C8.4999 46.2 8.7999 46.5 9.1999 46.5Z" fill="#7D7D7D"/>
<path d="M21.4001 46.5H30.2001C30.6001 46.5 31.0001 46.2 31.0001 45.7V37.8C31.0001 37.4 30.7001 37 30.2001 37H21.4001C21.0001 37 20.6001 37.3 20.6001 37.8V45.7C20.6001 46.2 21.0001 46.5 21.4001 46.5Z" fill="#7D7D7D"/>
<path d="M33.6999 46.5H42.4999C42.8999 46.5 43.2999 46.2 43.2999 45.7V37.8C43.2999 37.4 42.9999 37 42.4999 37H33.6999C33.2999 37 32.8999 37.3 32.8999 37.8V45.7C32.9999 46.2 33.2999 46.5 33.6999 46.5Z" fill="#7D7D7D"/>
<path d="M46 46.5H54.7999C55.1999 46.5 55.5999 46.2 55.5999 45.7V37.8C55.5999 37.4 55.2999 37 54.7999 37H46C45.6 37 45.2 37.3 45.2 37.8V45.7C45.2 46.2 45.5 46.5 46 46.5Z" fill="#7D7D7D"/>
<path d="M21.4001 35.2002H30.2001C30.6001 35.2002 31.0001 34.9002 31.0001 34.4002V26.5002C31.0001 26.1002 30.7001 25.7002 30.2001 25.7002H21.4001C21.0001 25.7002 20.6001 26.0002 20.6001 26.5002V34.4002C20.6001 34.9002 21.0001 35.2002 21.4001 35.2002Z" fill="#7D7D7D"/>
<path d="M33.6999 35.2002H42.4999C42.8999 35.2002 43.2999 34.9002 43.2999 34.4002V26.5002C43.2999 26.1002 42.9999 25.7002 42.4999 25.7002H33.6999C33.2999 25.7002 32.8999 26.0002 32.8999 26.5002V34.4002C32.9999 34.9002 33.2999 35.2002 33.6999 35.2002Z" fill="#7D7D7D"/>
<path d="M46 35.2002H54.7999C55.1999 35.2002 55.5999 34.9002 55.5999 34.4002V26.5002C55.5999 26.1002 55.2999 25.7002 54.7999 25.7002H46C45.6 25.7002 45.2 26.0002 45.2 26.5002V34.4002C45.2 34.9002 45.5 35.2002 46 35.2002Z" fill="#7D7D7D"/>
<path d="M46 23.8999H54.7999C55.1999 23.8999 55.5999 23.5999 55.5999 23.0999V15.1999C55.5999 14.7999 55.2999 14.3999 54.7999 14.3999H46C45.6 14.3999 45.2 14.6999 45.2 15.1999V23.0999C45.2 23.5999 45.5 23.8999 46 23.8999Z" fill="#7D7D7D"/>
<path d="M58.3 46.5H67.1C67.5 46.5 67.9 46.2 67.9 45.7V37.8C67.9 37.4 67.6 37 67.1 37H58.3C57.9 37 57.5 37.3 57.5 37.8V45.7C57.5 46.2 57.8 46.5 58.3 46.5Z" fill="#7D7D7D"/>
</g>
</g>
<defs>
<clipPath id="clip0_1_64">
<rect width="100" height="100" fill="white" transform="translate(0 0.5)"/>
</clipPath>
</defs>
</svg>
