<svg width="100" height="101" viewBox="0 0 100 101" fill="none" xmlns="http://www.w3.org/2000/svg">
<g clip-path="url(#clip0_1_58)">
<mask id="mask0_1_58" style="mask-type:luminance" maskUnits="userSpaceOnUse" x="0" y="0" width="100" height="101">
<path d="M100 0.5H0V100.5H100V0.5Z" fill="white"/>
</mask>
<g mask="url(#mask0_1_58)">
<path d="M98.0999 45.9999L54.4999 2.3999C51.9999 -0.100097 47.8999 -0.100097 45.3999 2.3999L36.2999 11.4999L47.7999 22.9999C50.4999 22.0999 53.4999 22.6999 55.6999 24.7999C57.7999 26.8999 58.3999 29.9999 57.4999 32.6999L68.5999 43.7999C71.2999 42.8999 74.3999 43.4999 76.4999 45.5999C79.4999 48.5999 79.4999 53.3999 76.4999 56.3999C73.4999 59.3999 68.6999 59.3999 65.6999 56.3999C63.3999 54.0999 62.8999 50.7999 63.9999 48.0999L53.5999 37.7999V64.9999C54.2999 65.3999 54.9999 65.8999 55.5999 66.3999C58.5999 69.3999 58.5999 74.1999 55.5999 77.1999C52.5999 80.1999 47.7999 80.1999 44.7999 77.1999C41.7999 74.1999 41.7999 69.3999 44.7999 66.3999C45.4999 65.6999 46.3999 65.0999 47.2999 64.6999V37.2999C46.3999 36.8999 45.4999 36.2999 44.7999 35.5999C42.4999 33.2999 41.9999 29.9999 43.0999 27.1999L31.7999 15.8999L1.8999 45.7999C-0.600097 48.2999 -0.600097 52.3999 1.8999 54.8999L45.5999 98.5999C48.0999 101.1 52.1999 101.1 54.6999 98.5999L98.1999 55.0999C100.6 52.5999 100.6 48.5999 98.0999 45.9999Z" fill="#757575"/>
</g>
</g>
<defs>
<clipPath id="clip0_1_58">
<rect width="100" height="100" fill="white" transform="translate(0 0.5)"/>
</clipPath>
</defs>
</svg>
