<svg width="106" height="104" viewBox="0 0 106 104" fill="none" xmlns="http://www.w3.org/2000/svg">
<g clip-path="url(#clip0_1_26)">
<mask id="mask0_1_26" style="mask-type:luminance" maskUnits="userSpaceOnUse" x="0" y="0" width="106" height="104">
<path d="M106 0.5H0V103.5H106V0.5Z" fill="white"/>
</mask>
<g mask="url(#mask0_1_26)">
<path d="M94.2999 25C93.6999 23.2 92.3999 21.7 90.5999 20.8L55.6999 4.1C54.7999 3.6 53.7999 3.5 52.8999 3.5C51.9999 3.5 50.9999 3.5 49.9999 3.7L15.0999 20.5C13.3999 21.3 12.0999 22.8 11.6999 24.7L3.09986 62.4C2.79986 64.3 3.19986 66.3 4.39986 67.9L28.4999 97.7C29.8999 99.1 31.7999 100 33.7999 100.1H72.1999C74.2999 100.3 76.1999 99.4 77.4999 97.7L101.6 67.9C102.7 66.3 103.2 64.4 103 62.4L94.2999 25Z" fill="white" stroke="white" stroke-width="5" stroke-miterlimit="10"/>
<path d="M94.2999 25C93.6999 23.2 92.3999 21.7 90.5999 20.8L55.6999 4.1C54.7999 3.6 53.7999 3.5 52.8999 3.5C51.9999 3.5 50.9999 3.5 49.9999 3.7L15.0999 20.5C13.3999 21.3 12.0999 22.8 11.6999 24.7L3.09986 62.4C2.79986 64.3 3.19986 66.3 4.39986 67.9L28.4999 97.7C29.8999 99.1 31.7999 100 33.7999 100.1H72.1999C74.2999 100.3 76.1999 99.4 77.4999 97.7L101.6 67.9C102.7 66.3 103.2 64.4 103 62.4L94.2999 25Z" fill="#696969"/>
<path d="M88.8998 60.9001C88.7998 60.9001 88.6998 60.9001 88.6998 60.8001C88.6998 60.7001 88.4998 60.7001 88.1998 60.7001C87.6998 60.6001 87.2998 60.6001 86.7998 60.6001C86.5998 60.6001 86.2998 60.6001 86.0998 60.5001H85.9998C84.6998 60.4001 83.3998 60.2001 82.0998 59.8001C81.7998 59.7001 81.3998 59.3001 81.2998 59.0001L80.3998 58.8001C80.8998 55.5001 80.5998 52.1001 79.8998 48.7001C79.0998 45.4001 77.6998 42.2001 75.8998 39.3001L76.5998 38.6001V38.5001C76.5998 38.2001 76.6998 37.7001 76.8998 37.5001C77.8998 36.6001 78.9998 35.9001 80.0998 35.2001C80.2998 35.1001 80.5998 35.0001 80.7998 34.9001C81.2998 34.7001 81.5998 34.4001 82.0998 34.2001C82.1998 34.1001 82.2998 34.1001 82.3998 34.0001C82.4998 33.9001 82.3998 33.9001 82.3998 33.8001C83.3998 33.0001 83.6998 31.6001 82.8998 30.6001C82.5998 30.1001 81.8998 29.8001 81.2998 29.8001C80.6998 29.8001 80.1998 30.0001 79.6998 30.4001L79.5998 30.5001C79.4998 30.6001 79.3998 30.7001 79.2998 30.7001C78.9998 31.0001 78.5998 31.4001 78.3998 31.7001C78.2998 31.9001 78.0998 32.0001 77.8998 32.2001C77.0998 33.1001 76.0998 34.0001 74.9998 34.7001C74.7998 34.8001 74.4998 34.9001 74.2998 34.9001C74.1998 34.9001 73.9998 34.9001 73.7998 34.8001H73.6998L72.7998 35.4001C71.9998 34.4001 70.8998 33.5001 69.9998 32.5001C65.7998 29.2001 60.4998 27.1001 55.0998 26.6001L54.9998 25.7001V25.8001C54.6998 25.6001 54.4998 25.2001 54.3998 24.9001C54.3998 23.6001 54.3998 22.4001 54.5998 21.0001V20.9001C54.5998 20.7001 54.6998 20.4001 54.6998 20.2001C54.7998 19.7001 54.7998 19.3001 54.8998 18.8001V18.1001C54.9998 17.0001 54.0998 15.8001 52.9998 15.7001C52.2998 15.6001 51.5998 15.9001 51.0998 16.5001C50.5998 17.0001 50.3998 17.5001 50.3998 18.1001V18.7001C50.3998 19.2001 50.4998 19.6001 50.5998 20.1001C50.6998 20.3001 50.6998 20.6001 50.6998 20.8001V20.9001C50.8998 22.2001 50.8998 23.4001 50.8998 24.8001C50.7998 25.1001 50.6998 25.5001 50.2998 25.7001V25.9001L50.1998 26.8001C48.8998 26.9001 47.6998 27.1001 46.2998 27.4001C40.8998 28.5001 35.9998 31.4001 32.1998 35.4001L31.4998 34.9001H31.3998C31.2998 34.9001 31.1998 35.0001 30.8998 35.0001C30.6998 35.0001 30.3998 34.9001 30.1998 34.8001C29.1998 34.0001 28.0998 33.1001 27.2998 32.2001C27.1998 32.0001 26.9998 31.9001 26.7998 31.7001C26.4998 31.4001 26.1998 31.0001 25.8998 30.7001C25.7998 30.6001 25.6998 30.6001 25.5998 30.5001C25.4998 30.4001 25.4998 30.4001 25.4998 30.4001C24.9998 30.1001 24.4998 29.8001 23.8998 29.8001C23.1998 29.8001 22.5998 30.0001 22.2998 30.6001C21.5998 31.6001 21.7998 33.0001 22.7998 33.8001C22.8998 33.8001 22.8998 33.9001 22.8998 33.9001C22.8998 33.9001 23.0998 34.1001 23.1998 34.1001C23.4998 34.3001 23.9998 34.6001 24.4998 34.8001C24.6998 34.9001 24.9998 35.0001 25.1998 35.1001C26.2998 35.8001 27.4998 36.5001 28.3998 37.4001C28.5998 37.6001 28.8998 38.1001 28.6998 38.4001V38.3001L29.3998 39.0001C29.2998 39.2001 29.1998 39.3001 29.0998 39.6001C25.5998 45.2001 24.0998 51.8001 25.0998 58.4001L24.1998 58.6001C24.1998 58.7001 24.0998 58.7001 24.0998 58.7001C23.9998 59.0001 23.5998 59.3001 23.2998 59.5001C21.9998 59.8001 20.7998 60.1001 19.3998 60.2001C19.1998 60.2001 18.8998 60.2001 18.6998 60.3001C18.1998 60.3001 17.7998 60.4001 17.2998 60.4001C17.1998 60.4001 17.0998 60.5001 16.7998 60.5001C16.6998 60.5001 16.6998 60.5001 16.5998 60.6001C15.2998 60.8001 14.4998 62.0001 14.7998 63.2001C14.9998 64.2001 16.0998 64.9001 17.0998 64.8001C17.2998 64.8001 17.3998 64.8001 17.6998 64.7001C17.7998 64.7001 17.7998 64.7001 17.7998 64.6001C17.7998 64.5001 18.0998 64.6001 18.2998 64.6001C18.7998 64.5001 19.1998 64.3001 19.5998 64.1001C19.7998 64.0001 20.0998 63.9001 20.2998 63.9001H20.3998C21.6998 63.4001 22.7998 63.1001 24.1998 62.9001H24.2998C24.5998 62.9001 24.9998 63.0001 25.1998 63.2001C25.2998 63.2001 25.2998 63.3001 25.2998 63.3001L26.2998 63.2001C27.9998 68.5001 31.1998 73.1001 35.6998 76.6001C36.6998 77.4001 37.5998 78.1001 38.7998 78.7001L38.2998 79.5001C38.2998 79.6001 38.3998 79.6001 38.3998 79.6001C38.5998 79.9001 38.5998 80.4001 38.4998 80.7001C37.9998 81.8001 37.3998 83.0001 36.6998 84.0001V84.1001C36.5998 84.3001 36.4998 84.4001 36.1998 84.7001C35.9998 84.9001 35.6998 85.4001 35.3998 85.8001C35.2998 85.9001 35.2998 86.0001 35.1998 86.1001C35.1998 86.1001 35.1998 86.2001 35.0998 86.2001C34.5998 87.6001 34.9998 88.9001 35.9998 89.5001C36.1998 89.6001 36.5998 89.7001 36.7998 89.7001C37.6998 89.7001 38.4998 89.1001 38.9998 88.3001C38.9998 88.3001 38.9998 88.2001 39.0998 88.2001C39.0998 88.1001 39.1998 88.0001 39.2998 87.9001C39.3998 87.4001 39.5998 87.1001 39.7998 86.6001L39.9998 85.9001C40.2998 84.6001 40.8998 83.5001 41.4998 82.4001C41.6998 82.1001 42.0998 81.8001 42.3998 81.7001C42.4998 81.7001 42.4998 81.7001 42.4998 81.6001L42.9998 80.7001C46.1998 82.0001 49.4998 82.5001 52.8998 82.5001C54.9998 82.5001 56.9998 82.3001 59.0998 81.7001C60.3998 81.5001 61.5998 81.0001 62.7998 80.7001L63.2998 81.5001C63.3998 81.5001 63.3998 81.5001 63.3998 81.6001C63.6998 81.7001 64.0998 81.9001 64.2998 82.3001C64.8998 83.4001 65.3998 84.6001 65.7998 85.8001V85.9001L65.9998 86.6001C66.0998 87.1001 66.1998 87.5001 66.4998 87.9001C66.5998 88.0001 66.5998 88.1001 66.6998 88.2001C66.6998 88.2001 66.6998 88.3001 66.7998 88.3001C67.2998 89.1001 68.0998 89.7001 68.9998 89.7001C69.2998 89.7001 69.5998 89.6001 69.8998 89.5001C70.3998 89.3001 70.7998 88.8001 70.8998 88.2001C70.9998 87.6001 70.9998 87.1001 70.7998 86.5001C70.7998 86.4001 70.6998 86.4001 70.6998 86.4001C70.6998 86.3001 70.5998 86.2001 70.4998 86.1001C70.2998 85.6001 69.9998 85.3001 69.6998 85.0001C69.5998 84.8001 69.4998 84.7001 69.1998 84.4001V84.2001C68.3998 83.2001 67.7998 82.0001 67.3998 80.9001C67.2998 80.6001 67.2998 80.1001 67.4998 79.8001C67.4998 79.7001 67.5998 79.7001 67.5998 79.7001L67.2998 78.8001C73.0998 75.3001 77.5998 69.8001 79.6998 63.2001L80.5998 63.3001C80.6998 63.3001 80.6998 63.2001 80.6998 63.2001C80.8998 63.0001 81.2998 62.9001 81.5998 62.9001H81.6998C82.9998 63.1001 84.1998 63.5001 85.3998 63.9001H85.4998C85.6998 64.0001 85.9998 64.1001 86.1998 64.1001C86.6998 64.3001 86.9998 64.6001 87.4998 64.7001C87.5998 64.7001 87.6998 64.8001 87.9998 64.8001C88.0998 64.8001 88.0998 64.8001 88.1998 64.9001C88.3998 65.0001 88.4998 65.0001 88.7998 65.0001C89.7998 65.0001 90.6998 64.3001 91.0998 63.4001C90.7998 62.0001 89.8998 61.1001 88.8998 60.9001ZM55.7998 57.4001L52.6998 58.9001L49.5998 57.4001L48.7998 54.1001L50.9998 51.4001H54.3998L56.5998 54.1001L55.7998 57.4001ZM74.4998 49.9001C75.0998 52.3001 75.1998 54.7001 74.9998 57.1001L64.0998 54.0001C63.0998 53.8001 62.4998 52.7001 62.6998 51.7001C62.7998 51.4001 62.8998 51.1001 63.1998 50.9001L71.7998 43.1001C72.9998 45.2001 73.8998 47.5001 74.4998 49.9001ZM68.2998 38.9001L58.8998 45.5001C58.0998 46.0001 56.9998 45.8001 56.3998 45.0001C56.1998 44.8001 56.0998 44.5001 56.0998 44.2001L55.3998 32.7001C60.3998 33.3001 64.8998 35.5001 68.2998 38.9001ZM47.5998 33.1001L49.8998 32.6001L49.2998 44.0001C49.2998 45.0001 48.3998 45.8001 47.3998 45.8001C47.0998 45.8001 46.7998 45.7001 46.4998 45.6001L36.9998 38.9001C39.8998 36.1001 43.5998 34.0001 47.5998 33.1001ZM33.5998 43.2001L42.0998 50.7001C42.8998 51.4001 42.9998 52.5001 42.2998 53.3001C42.0998 53.6001 41.7998 53.8001 41.3998 53.9001L30.2998 57.1001C29.9998 52.3001 31.0998 47.4001 33.5998 43.2001ZM31.6998 62.5001L42.9998 60.6001C43.8998 60.6001 44.7998 61.2001 44.8998 62.1001C44.9998 62.4001 44.9998 62.9001 44.7998 63.2001L40.4998 73.7001C36.4998 71.1001 33.2998 67.1001 31.6998 62.5001ZM57.6998 76.7001C56.0998 77.0001 54.4998 77.3001 52.7998 77.3001C50.3998 77.3001 47.8998 76.8001 45.5998 76.2001L51.1998 66.0001C51.7998 65.3001 52.6998 65.1001 53.4998 65.5001C53.7998 65.7001 54.0998 66.0001 54.3998 66.3001L59.8998 76.2001C59.0998 76.3001 58.4998 76.5001 57.6998 76.7001ZM71.5998 66.7001C69.8998 69.4001 67.4998 71.8001 64.6998 73.6001L60.1998 62.9001C59.9998 62.0001 60.3998 61.1001 61.1998 60.7001C61.4998 60.6001 61.8998 60.5001 62.1998 60.5001L73.5998 62.4001C73.1998 64.0001 72.4998 65.5001 71.5998 66.7001Z" fill="white"/>
</g>
</g>
<defs>
<clipPath id="clip0_1_26">
<rect width="106" height="103" fill="white" transform="translate(0 0.5)"/>
</clipPath>
</defs>
</svg>
