<svg width="100" height="101" viewBox="0 0 100 101" fill="none" xmlns="http://www.w3.org/2000/svg">
<g clip-path="url(#clip0_1_79)">
<mask id="mask0_1_79" style="mask-type:luminance" maskUnits="userSpaceOnUse" x="0" y="0" width="100" height="101">
<path d="M100 0.5H0V100.5H100V0.5Z" fill="white"/>
</mask>
<g mask="url(#mask0_1_79)">
<path d="M50.1 0.800049L52.8 5.80005C53.4 6.70005 54 7.50005 54.8 8.30005C57 10.5 59.1 12.9 61.1 15.4C65.6 21.3 68.7 27.9 70.8 35.1C72.1 39.5 72.8 43.9001 72.9 48.4001C73.1 61.9001 68.5 73.5 59.2 83.1C57.7 84.6 56 86 54.3 87.3C53.4 87.3 52.9 86.6 52.6 85.9C51.9 84.7001 51.4 83.4 51.2 82C50.9 80.4 50.7 78.7 50.8 77V76.2C50.6 76.2 49.8 1.20005 50.1 0.800049Z" fill="#797979"/>
<path d="M50.1001 0.599984C50.0001 0.399984 49.9001 0.499984 49.8001 0.699984C49.9001 1.79998 49.5001 2.79998 48.9001 3.69998C48.2001 4.59998 47.4001 5.29998 46.5001 6.09998C41.7001 10.3 37.8001 15.4 34.8001 21C30.7001 28.6 28.6001 36.8 28.1001 45.4C27.8001 48.5 29.1001 59.5 30.1001 62.6C32.8001 71 37.6001 78 43.8001 84.1C45.3001 85.6 47.0001 86.9 48.6001 88.2C49.1001 88.2 49.1001 87.8 49.3001 87.4C49.5001 86.7 49.7001 86 49.8001 85.3L50.9001 77.1L50.1001 0.599984Z" fill="#8E8E8E"/>
<path d="M52.8001 90.6C52.9001 89.4 53.5001 88.3 54.2001 87.3C53.5001 87 53.1001 86.5 52.7001 85.9C52.4001 85.3 52.1001 84.7 51.9001 84.1C51.1001 81.8 51.0001 79.4 50.8001 77.1V75.7C50.5001 75.9 50.5001 77.8 50.5001 78C50.3001 80.5 50.0001 82.9 49.5001 85.4C49.3001 86.4 49.2001 87.4 48.6001 88.2C48.6001 88.3 48.6001 88.4 48.7001 88.6C49.7001 91.5 49.9001 94.4 50.1001 97.4V98.5C50.1001 99.8 50.0001 99.5 51.1001 100C51.5001 100.2 52.0001 100.2 52.5001 100.5C52.8001 100.5 52.9001 100.2 52.9001 100L52.7001 98.2V93.2C52.5001 92.3 52.7001 91.5 52.8001 90.6Z" fill="#C0C0C0"/>
</g>
</g>
<defs>
<clipPath id="clip0_1_79">
<rect width="100" height="100" fill="white" transform="translate(0 0.5)"/>
</clipPath>
</defs>
</svg>
