<svg width="100" height="101" viewBox="0 0 100 101" fill="none" xmlns="http://www.w3.org/2000/svg">
<g clip-path="url(#clip0_1_90)">
<mask id="mask0_1_90" style="mask-type:luminance" maskUnits="userSpaceOnUse" x="0" y="0" width="100" height="101">
<path d="M100 0.5H0V100.5H100V0.5Z" fill="white"/>
</mask>
<g mask="url(#mask0_1_90)">
<path d="M50 100.5C77.6 100.5 100 78.1 100 50.5C100 22.9 77.6 0.5 50 0.5C22.4 0.5 0 22.9 0 50.5C0 78.1 22.4 100.5 50 100.5Z" fill="#808080"/>
<path d="M83.1 88L38.4 30.5H30V70.5H36.7V39L77.7 92C79.6 90.8 81.4 89.5 83.1 88Z" fill="url(#paint0_linear_1_90)"/>
<path d="M70.5999 30.5H63.8999V70.5H70.5999V30.5Z" fill="url(#paint1_linear_1_90)"/>
</g>
</g>
<defs>
<linearGradient id="paint0_linear_1_90" x1="51.7943" y1="72.2906" x2="71.5166" y2="96.735" gradientUnits="userSpaceOnUse">
<stop stop-color="white"/>
<stop offset="1" stop-color="white" stop-opacity="0"/>
</linearGradient>
<linearGradient id="paint1_linear_1_90" x1="67.2984" y1="30.4872" x2="67.1868" y2="59.8624" gradientUnits="userSpaceOnUse">
<stop stop-color="white"/>
<stop offset="1" stop-color="white" stop-opacity="0"/>
</linearGradient>
<clipPath id="clip0_1_90">
<rect width="100" height="100" fill="white" transform="translate(0 0.5)"/>
</clipPath>
</defs>
</svg>
