<svg width="100" height="101" viewBox="0 0 100 101" fill="none" xmlns="http://www.w3.org/2000/svg">
<g clip-path="url(#clip0_1_87)">
<path d="M46.3 1.60005C48.8 0.200049 52 0.200049 54.5 1.60005C67 8.60005 79.4 15.7001 91.9 22.7001C94.2 24 95.8 26.6 95.8 29.3V71.7C95.8 74.5 94.1 77.2 91.6 78.5C79.2 85.5 66.8 92.5 54.3 99.5C51.8 100.9 48.5 100.8 46 99.3C42.3 97.1001 38.5 95 34.8 92.8C34 92.3 33.2 92 32.6 91.2C33.1 90.6 33.9 90.5 34.6 90.2C36.2 89.7 37.6 88.9 39 88.1C39.4 87.9 39.8 87.9 40.1 88.2C43.3 90 46.4 91.9 49.6 93.7C50.3 94.1 51 93.6 51.6 93.2C64 86.4 76.2 79.6 88.3 72.7C88.8 72.5 89 72 89 71.5C89 57.5 89 43.5 89 29.6C89.1 29 88.7 28.5 88.2 28.3C75.8 21.3 63.4 14.3 51.1 7.40005C50.9 7.30005 50.6 7.20005 50.4 7.20005C50.1 7.20005 49.9 7.30005 49.7 7.40005C37.3 14.4 25 21.4 12.6 28.3C12 28.5 11.7 29 11.7 29.5C11.7 43.5 11.7 57.5 11.7 71.4C11.7 71.6 11.7 71.9 11.9 72.1C12 72.3 12.2 72.5 12.4 72.6C15.7 74.5 19 76.3 22.3 78.2C24.2 79.2 26.4 79.8 28.5 79C30.3 78.4 31.6 76.5 31.5 74.6C31.5 60.7 31.5 46.8 31.5 32.9001C31.5 32.3001 32 31.8 32.6 31.8C34.2 31.8 35.8 31.8 37.4 31.8C38.1 31.8 38.5 32.4 38.4 33.1C38.4 47.1 38.4 61.1 38.4 75.1C38.4 78.8 36.9 82.9 33.4 84.7C29.2 86.9 23.9 86.4 19.7 84.3C16.1 82.5 12.6 80.3 9 78.4C6.7 77.2001 5 74.5 5 71.7V29.3C5 26.5 6.6 23.9 9 22.6C21.4 15.6 33.9 8.60005 46.3 1.60005Z" fill="#A8A8A8"/>
<path d="M57.1001 30.9C62.5001 30.6 68.3001 30.7 73.2001 33.4C77.0001 35.4 79.1001 39.7 79.1001 43.9C79.0001 44.5 78.4001 44.8 77.9001 44.7C76.3001 44.7 74.8001 44.7 73.2001 44.7C72.5001 44.7 72.1001 44.1 72.1001 43.5C71.6001 41.5 70.6001 39.5 68.7001 38.5C65.8001 37 62.4001 37.1 59.3001 37.2C57.0001 37.3 54.5001 37.5 52.6001 38.9C51.1001 39.9 50.6001 42 51.2001 43.7C51.7001 44.9 53.1001 45.3 54.2001 45.6C60.7001 47.3 67.6001 47.1 74.0001 49.4C76.7001 50.3 79.2001 52.1 80.2001 54.9C81.4001 58.6 80.9001 63.1 78.2001 66.1C76.1001 68.6 72.9001 69.9 69.8001 70.6C65.5001 71.5 61.2001 71.5 57.0001 71.1C53.0001 70.6 48.9001 69.6 45.9001 66.9C43.3001 64.6 42.0001 61.1 42.1001 57.7C42.1001 57.1 42.7001 56.7 43.3001 56.8C44.9001 56.8 46.5001 56.8 48.0001 56.8C48.6001 56.8 49.1001 57.3 49.1001 57.9C49.4001 59.8 50.1001 61.8 51.8001 63C55.0001 65.1 59.1001 64.9 62.7001 65C65.8001 64.9 69.2001 64.8 71.7001 62.8C73.0001 61.6 73.4001 59.7 73.0001 58.1C72.6001 56.7 71.2001 56.1 69.9001 55.6C63.5001 53.6 56.5001 54.3 50.1001 52C47.5001 51.1 45.0001 49.4 44.0001 46.7C42.6001 42.9 43.2001 38.3 46.2001 35.4C49.1001 32.4 53.2001 31.3 57.1001 30.9Z" fill="#A8A8A8"/>
</g>
<defs>
<clipPath id="clip0_1_87">
<rect width="100" height="100" fill="white" transform="translate(0 0.5)"/>
</clipPath>
</defs>
</svg>
