<svg width="100" height="101" viewBox="0 0 100 101" fill="none" xmlns="http://www.w3.org/2000/svg">
<g clip-path="url(#clip0_1_43)">
<mask id="mask0_1_43" style="mask-type:luminance" maskUnits="userSpaceOnUse" x="0" y="0" width="100" height="101">
<path d="M100 0.5H0V100.5H100V0.5Z" fill="white"/>
</mask>
<g mask="url(#mask0_1_43)">
<path d="M98.5 60.4C97.9 58.6 96.4 57.4 94.4 57.1C93.5 57 92.4 57 91.1 57.3C88.9 57.8 87.3 57.9 86.1 58C90.6 50.4 94.2 41.8 96.3 33.6C99.7 20.4 97.9 14.4 95.8 11.7C90.2 4.50002 82 0.600023 72.2 0.500023C66.9 0.400023 62.3 1.50002 59.9 2.20002C57.7 1.80002 55.2 1.60002 52.7 1.50002C47.9 1.50002 43.7 2.50002 40.1 4.70002C38.1 4.00002 34.9 3.10002 31.3 2.50002C22.6 1.10002 15.7 2.20002 10.6 5.80002C4.39999 10.2 1.59999 17.8 2.09999 28.4C2.29999 31.8 4.09999 42 7.09999 51.8C8.79999 57.4 10.6 62 12.5 65.6C15.2 70.7 18 73.6 21.2 74.7C23 75.3 26.2 75.7 29.7 72.9C30.1 73.4 30.7 74 31.5 74.4C32.5 75 33.7 75.5 34.9 75.8C39.2 76.9 43.2 76.6 46.7 75.1C46.7 75.7 46.7 76.3 46.8 76.8C46.8 77.6 46.8 78.4 46.9 79.2C47.1 84.3 47.4 88.2 48.5 91C48.6 91.2 48.6 91.4 48.7 91.6C49.2 93.2 50.1 95.8 52.2 97.8C54.4 99.9 57.2 100.6 59.6 100.6C60.8 100.6 62 100.4 63.1 100.2C66.8 99.4 71 98.2 74.1 93.8C77 89.7 78.4 83.5 78.6 73.7C78.6 73.4 78.7 73.2 78.7 72.9L78.8 72.4L79.5 72.5H79.7C83.5 72.7 88.1 71.9 91 70.5C93 69.4 100.2 65.6 98.5 60.4Z" fill="#808080"/>
<path d="M91.9999 61.4C80.6999 63.7 79.9999 59.9 79.9999 59.9C91.8999 42.2 96.8999 19.7 92.5999 14.2C80.8999 -0.800052 60.5999 6.29995 60.2999 6.49995H60.1999C57.9999 5.99995 55.4999 5.79995 52.6999 5.69995C47.5999 5.59995 43.6999 6.99995 40.7999 9.29995C40.7999 9.29995 4.69995 -5.60005 6.29995 28.1C6.69995 35.3 16.5999 82.4 28.3999 68.1C32.6999 62.9 36.8999 58.5 36.8999 58.5C38.9999 59.9 41.3999 60.6 43.9999 60.3L44.1999 60.1C44.0999 60.7 44.1999 61.4 44.2999 62.1C41.2999 65.5 42.1999 66.1 36.0999 67.4C29.9999 68.7 33.5999 70.9 35.8999 71.5C38.7999 72.2 45.3999 73.2 49.7999 67L49.5999 67.7C50.7999 68.7 51.5999 73.8999 51.4999 78.7C51.3999 83.5 51.2999 86.8 52.1999 89.3C53.0999 91.9 54.0999 97.6 62.0999 95.9C68.7999 94.5 72.1999 90.7 72.6999 84.5C72.9999 80.1 73.7999 80.7 73.8999 76.8L74.4999 74.9C75.1999 68.9 74.5999 67 78.6999 67.9L79.6999 68C82.6999 68.1 86.6999 67.5 88.9999 66.4C93.9999 64.3 96.8999 60.4 91.9999 61.4Z" fill="#5C5C5C"/>
<path d="M42.8001 31.3C41.8001 31.2 40.9001 31.3 40.4001 31.6C40.1001 31.8 40.1001 32 40.0001 32.2C39.9001 32.6 40.2001 33.1 40.4001 33.3C40.9001 34 41.7001 34.4 42.4001 34.5C42.5001 34.5 42.6001 34.5 42.7001 34.5C43.9001 34.5 45.0001 33.5 45.1001 32.8C45.4001 32.1 44.1001 31.5 42.8001 31.3ZM76.4001 31.4C76.3001 30.7 75.1001 30.5 73.9001 30.7C72.7001 30.9 71.6001 31.4 71.7001 32.1C71.8001 32.6 72.8001 33.6 73.9001 33.6C74.0001 33.6 74.1001 33.6 74.2001 33.6C75.0001 33.5 75.5001 33 75.8001 32.7C76.3001 32.1 76.5001 31.7 76.4001 31.4Z" fill="white"/>
<path d="M95.7 61.1C95.3 59.8 93.9 59.4 91.6 59.9C84.8 61.3 82.3 60.3 81.5 59.7C86.8 51.6 91.2 41.8 93.5 32.7C94.6 28.4 95.2 24.4 95.3 21.1C95.4 17.5 94.7 14.9 93.5 13.3C88.5 6.70004 81 3.30004 72 3.20004C65.8 3.10004 60.6 4.70004 59.5 5.20004C57.4 4.70004 55 4.30004 52.5 4.30004C47.8 4.20004 43.8 5.30004 40.5 7.60004C39.1 7.10004 35.3 5.80004 30.7 5.00004C22.8 3.70004 16.5 4.70004 12 7.90004C6.79998 11.7 4.29998 18.5 4.79998 28C4.99998 31.2 6.79998 41.2 9.69998 50.7C13.5 63.2 17.7 70.3 22 71.8C22.5 72 23.1 72.1 23.7 72.1C25.3 72.1 27.2 71.4 29.3 68.9C31.8 65.9 34.3 63 37 60.2C38.7 61.1 40.6 61.6 42.5 61.7C42.5 61.8 42.5 61.8 42.5 61.9C42.2 62.3 41.8 62.7 41.5 63.1C40.2 64.8 39.9 65.2 35.6 66C34.4 66.3 31.1 66.9 31.1 69.2C31 71.7 34.9 72.7001 35.4 72.8C36.9 73.2001 38.4 73.4 39.8 73.4C43.2 73.4 46.3 72.3 48.7 70.1C48.6 79 49 87.7001 50.1 90.4C51 92.6 53.1 97.9 59.8 97.9C60.8 97.9 61.9 97.8 63.1 97.5C70.1 96 73.2 92.9 74.3 86C74.9 82.3 76 73.6 76.5 68.9C77.6 69.2001 79 69.4 80.5 69.4C83.6 69.4 87.2 68.7 89.5 67.7C92 66.6 96.6 63.7 95.7 61.1ZM79 29.4C79 30.8 78.8 32 78.6 33.4C78.4 34.8 78.2 36.3 78.1 38C78 39.7 78.3 41.5 78.5 43.3C78.9 46.8 79.4 50.4 77.7 54C77.4 53.5 77.2 53 77 52.5C76.8 52 76.3 51.2 75.7 50.1C73.3 45.7 67.6 35.5 70.5 31.4C71.3 30 73.5 28.7 79 29.4ZM72.4 6.00004C80.5 6.20004 86.9 9.20004 91.4 15C94.9 19.4 91 39.7 80 57.1C79.9 57 79.8 56.8 79.7 56.7L79.5 56.5C82.4 51.8 81.8 47.1 81.3 42.9C81.1 41.2 80.9 39.6 81 38.1C81.1 36.5 81.3 35.1 81.5 33.8C81.8 32.2 82 30.5 81.9 28.5C82 28.3 82 28 81.9 27.7C81.7 25.8 79.5 20 75.1 14.9C72.7 12.1 69.1 8.90004 64.3 6.70004C66.3 6.30004 69.2 5.90004 72.4 6.00004ZM27.1 67.1C24.9 69.8 23.3 69.3 22.8 69.1C19.5 68 15.7 61 12.3 49.9C9.39998 40.3 7.69998 30.6 7.49998 27.9C7.09998 19.3 9.09998 13.3 13.7 10.1C21.1 4.90004 33.1 8.00004 38 9.60004C37.9 9.70004 37.9 9.70004 37.8 9.80004C29.8 17.9 30 31.7 30 32.5C30 32.8 30 33.3 30.1 33.9C30.2 36.2 30.5 40.5 29.8 45.4C29.2 49.9 30.6 54.4 33.6 57.6C33.9 57.9 34.2 58.2 34.6 58.5C33.3 60.1 30.3 63.3 27.1 67.1ZM35.7 55.7C33.2 53.1 32.1 49.5 32.6 45.8C33.3 40.6 33.1 36.1 32.9 33.7C32.9 33.4 32.9 33.1 32.9 32.8C34.1 31.8 39.5 28.9 43.3 29.8C45.1 30.2 46.1 31.4 46.6 33.5C48.9 44.2 46.9 48.6 45.3 52.2C45 52.9 44.7 53.6 44.4 54.4L44.2 55C43.7 56.4 43.2 57.7 42.9 59C40.2 58.9 37.6 57.8 35.7 55.7ZM36.1 70.1C35.3 69.9 34.6 69.6001 34.2 69.3C34.5 69.1001 35.1 68.9 36.2 68.7C41.3 67.7 42 66.9 43.7 64.8C44.1 64.3 44.5 63.7 45.1 63.1C46 62.1 46.4 62.2 47.2 62.6C47.8 62.9 48.4 63.6 48.7 64.5C48.8 64.9 48.9 65.7 48.5 66.3C45 71.1 39.8 71.1 36.1 70.1ZM62.5 94.8C56.3 96.1001 54.1 93 52.7 89.4C51.8 87.1 51.3 76.5 51.6 64.9C51.6 64.7 51.6 64.6 51.5 64.5C51.5 64.2 51.4 63.9 51.3 63.7C50.8 62 49.6 60.6 48.2 60C47.6 59.8 46.6 59.3 45.4 59.7C45.7 58.6 46.1 57.4 46.6 56L46.8 55.4C47 54.8 47.3 54.1 47.6 53.4C49.3 49.7 51.6 44.5 49.1 33C48.2 28.7 45 26.5 40.3 27C37.5 27.3 34.9 28.4 33.6 29.1C33.3 29.2 33.1 29.4 32.8 29.5C33.2 25.1 34.5 17 39.6 11.8C43 8.50004 47.3 6.90004 52.5 7.00004C62.8 7.20004 69.4 12.5 73.1 16.9C76.3 20.7 78 24.5 78.7 26.6C73.5 26.1 69.9 27.1 68.2 29.7C64.3 35.3 70.3 46.2 73.2 51.4C73.7 52.4 74.2 53.2 74.3 53.5C75.2 55.8 76.5 57.3 77.4 58.5C77.7 58.8 77.9 59.2 78.1 59.5C76.5 60 73.7 61 73.9 66.3C73.7 68.9 72.2 81.3 71.5 85.7C70.6 91.4 68.5 93.5 62.5 94.8ZM88.3 65.2C86.7 66 84 66.5 81.4 66.6C78.6 66.7 77.1 66.3 76.8 66C76.6 62.7 77.9 62.4 79.1 62C79.3 61.9 79.5 61.9 79.7 61.8C79.8 61.9 79.9 62 80.1 62.1C82.4 63.6 86.4 63.8 92.2 62.6H92.3C91.5 63.3 90.2 64.3 88.3 65.2Z" fill="white"/>
</g>
</g>
<defs>
<clipPath id="clip0_1_43">
<rect width="100" height="100" fill="white" transform="translate(0 0.5)"/>
</clipPath>
</defs>
</svg>
