<svg width="100" height="101" viewBox="0 0 100 101" fill="none" xmlns="http://www.w3.org/2000/svg">
<g clip-path="url(#clip0_1_52)">
<mask id="mask0_1_52" style="mask-type:luminance" maskUnits="userSpaceOnUse" x="0" y="0" width="100" height="101">
<path d="M100 0.5H0V100.5H100V0.5Z" fill="white"/>
</mask>
<g mask="url(#mask0_1_52)">
<path fill-rule="evenodd" clip-rule="evenodd" d="M9.80005 69.1001C8.80005 67.5001 8.80005 65.5001 9.80005 63.8001L47.2001 2.80007C49.3 -0.599933 54.3 -0.299937 56 3.30007L90.1 77.5001C91.4 80.2001 89.9 83.5001 87 84.4001L33.8 100.3C31.7 100.9 29.4001 100.1 28.2001 98.2001L9.80005 69.1001ZM51.4001 20.7001C51.8001 18.9001 54.2001 18.6001 54.9001 20.3001L78.5 74.8001C78.9 75.8001 78.4 77.0001 77.3 77.3001L40.6 88.3001C39.3 88.7001 38 87.5001 38.2001 86.1001L51.4001 20.7001Z" fill="#808080"/>
</g>
</g>
<defs>
<clipPath id="clip0_1_52">
<rect width="100" height="100" fill="white" transform="translate(0 0.5)"/>
</clipPath>
</defs>
</svg>
