<svg width="100" height="101" viewBox="0 0 100 101" fill="none" xmlns="http://www.w3.org/2000/svg">
<g clip-path="url(#clip0_1_34)">
<mask id="mask0_1_34" style="mask-type:luminance" maskUnits="userSpaceOnUse" x="0" y="0" width="100" height="101">
<path d="M100 0.5H0V100.5H100V0.5Z" fill="white"/>
</mask>
<g mask="url(#mask0_1_34)">
<path d="M49.6 0.5C24.3 0.5 25.8 11.5 25.8 11.5V22.9H50V26.3H16.2C16.2 26.3 0 24.5 0 50.1C0 75.7 14.2 74.8 14.2 74.8H22.7V62.9C22.7 62.9 22.2 48.7 36.7 48.7H60.7C60.7 48.7 74.2 48.9 74.2 35.7V13.8C74.1 13.8 76.2 0.5 49.6 0.5ZM36.3 8.2C36.9 8.2 37.4 8.3 38 8.5C38.5 8.7 39 9 39.4 9.4C39.8 9.8 40.1 10.3 40.3 10.8C40.5 11.3 40.6 11.9 40.6 12.5C40.6 13.1 40.5 13.6 40.3 14.2C40.1 14.7 39.8 15.2 39.4 15.6C39 16 38.5 16.3 38 16.5C37.5 16.7 36.9 16.8 36.3 16.8C35.7 16.8 35.2 16.7 34.6 16.5C34 16.3 33.6 16 33.2 15.6C32.8 15.2 32.5 14.7 32.3 14.2C32.1 13.7 32 13.1 32 12.5C32 11.9 32.1 11.4 32.3 10.8C32.5 10.3 32.8 9.8 33.2 9.4C33.6 9 34.1 8.7 34.6 8.5C35.1 8.3 35.7 8.2 36.3 8.2Z" fill="url(#paint0_linear_1_34)"/>
<path d="M50.4 99.9999C75.7999 99.9999 74.1998 88.9999 74.1998 88.9999V77.5999H49.9V74.1999H83.6998C83.6998 74.1999 99.8999 75.9999 99.8999 50.3999C99.8999 24.7999 85.6998 25.6999 85.6998 25.6999H77.1998V37.4999C77.1998 37.4999 77.7 51.6999 63.2 51.6999H39.2C39.2 51.6999 25.7 51.4999 25.7 64.6999V86.5999C25.9 86.6999 23.8 99.9999 50.4 99.9999ZM63.7 92.2999C63.1 92.2999 62.5999 92.1999 62 91.9999C61.5 91.7999 60.9999 91.4999 60.5998 91.0999C60.1998 90.6999 59.9 90.1999 59.7 89.6999C59.5 89.1999 59.4 88.5999 59.4 87.9999C59.4 87.3999 59.5 86.8999 59.7 86.2999C59.9 85.7999 60.1998 85.2999 60.5998 84.8999C60.9999 84.4999 61.5 84.1999 62 83.9999C62.5 83.7999 63.1 83.6999 63.7 83.6999C64.2999 83.6999 64.8 83.7999 65.4 83.9999C65.9 84.1999 66.4 84.4999 66.8 84.8999C67.2 85.2999 67.4998 85.7999 67.6998 86.2999C67.8998 86.7999 68 87.3999 68 87.9999C68 88.5999 67.8998 89.0999 67.6998 89.6999C67.4998 90.1999 67.2 90.6999 66.8 91.0999C66.4 91.4999 65.9 91.7999 65.4 91.9999C64.9 92.1999 64.2999 92.2999 63.7 92.2999Z" fill="url(#paint1_linear_1_34)"/>
</g>
</g>
<defs>
<linearGradient id="paint0_linear_1_34" x1="9.3078" y1="9.7533" x2="58.8647" y2="58.8159" gradientUnits="userSpaceOnUse">
<stop stop-color="#6F6F6F"/>
<stop offset="1" stop-color="#5E5E5E"/>
</linearGradient>
<linearGradient id="paint1_linear_1_34" x1="39.7455" y1="41.2521" x2="92.964" y2="91.5612" gradientUnits="userSpaceOnUse">
<stop stop-color="#DADADA"/>
<stop offset="1" stop-color="#C5C5C5"/>
</linearGradient>
<clipPath id="clip0_1_34">
<rect width="100" height="100" fill="white" transform="translate(0 0.5)"/>
</clipPath>
</defs>
</svg>
