<svg width="100" height="101" viewBox="0 0 100 101" fill="none" xmlns="http://www.w3.org/2000/svg">
<g clip-path="url(#clip0_1_9)">
<mask id="mask0_1_9" style="mask-type:luminance" maskUnits="userSpaceOnUse" x="0" y="0" width="100" height="101">
<path d="M100 0.5H0V100.5H100V0.5Z" fill="white"/>
</mask>
<g mask="url(#mask0_1_9)">
<path d="M99.3 49.3L95.1 46.7C95.1 46.3 95 45.9 95 45.5L98.6 42.1C98.8 41.9 98.9 41.7 99 41.5C99.1 41.3 99.1 41 99 40.8C99 40.6 98.8 40.3 98.7 40.1C98.5 39.9 98.3 39.8 98.1 39.7L93.5 38C93.4 37.6 93.3 37.2 93.1 36.8L96 32.8C96.1 32.6 96.2 32.4 96.3 32.1C96.3 31.9 96.3 31.6 96.2 31.4C96.1 31.2 96 31 95.8 30.8C95.6 30.6 95.4 30.5 95.1 30.5L90.2 29.7C90 29.3 89.8 29 89.6 28.6L91.6 24.1C91.7 23.9 91.7 23.6 91.7 23.4C91.7 23.2 91.6 22.9 91.5 22.7C91.4 22.5 91.2 22.3 91 22.2C90.8 22.1 90.5 22 90.3 22L85.4 22.2C85.1 21.9 84.9 21.6 84.6 21.3L85.7 16.5C85.8 16.3 85.8 16 85.7 15.8C85.6 15.6 85.5 15.3 85.3 15.2C85.1 15 84.9 14.9 84.7 14.8C84.5 14.7 84.2 14.7 84 14.8L79.2 15.9C78.9 15.6 78.6 15.4 78.3 15.1L78.5 10.2C78.5 10 78.5 9.7 78.3 9.5C78.2 9.3 78 9.1 77.8 9C77.6 8.9 77.4 8.8 77.1 8.8C76.8 8.8 76.6 8.8 76.4 8.9L71.9 10.9C71.5 10.7 71.2 10.5 70.8 10.3L70 5.4C70 5.2 69.9 4.9 69.7 4.7C69.5 4.5 69.3 4.4 69.1 4.3C68.9 4.2 68.6 4.2 68.4 4.2C68.2 4.2 67.9 4.3 67.7 4.5L63.7 7.4C63.3 7.3 62.9 7.2 62.5 7L60.8 2.4C60.7 2.2 60.6 2 60.4 1.8C60.2 1.6 60 1.5 59.8 1.5C59.6 1.5 59.3 1.5 59.1 1.5C58.9 1.6 58.7 1.7 58.5 1.9L55.1 5.5C54.7 5.5 54.3 5.4 53.9 5.4L51.3 1.2C51.2 1 51 0.8 50.8 0.7C50.5 0.6 50.2 0.5 50 0.5C49.8 0.5 49.5 0.6 49.3 0.7C49.1 0.8 48.9 1 48.8 1.2L46.2 5.4C45.8 5.4 45.4 5.5 45 5.5L41.6 1.9C41.4 1.7 41.2 1.6 41 1.5C40.8 1.4 40.5 1.4 40.3 1.5C40.1 1.5 39.8 1.7 39.6 1.8C39.4 1.9 39.3 2.2 39.2 2.4L37.5 7C37.1 7.1 36.7 7.2 36.3 7.4L32.3 4.5C32.1 4.4 31.9 4.3 31.6 4.2C31.4 4.2 31.1 4.2 30.9 4.3C30.7 4.4 30.5 4.5 30.3 4.7C30.1 4.9 30 5.2 30 5.4L29.2 10.3C28.8 10.5 28.5 10.7 28.1 10.9L23.6 8.9C23.4 8.8 23.1 8.8 22.9 8.8C22.7 8.8 22.4 8.9 22.2 9C22 9.1 21.9 9.3 21.7 9.5C21.6 9.7 21.5 10 21.5 10.2L21.7 15.1C21.4 15.4 21.1 15.6 20.8 15.9L16 14.8C15.8 14.7 15.5 14.7 15.3 14.8C15.1 14.9 14.8 15 14.7 15.2C14.5 15.4 14.4 15.6 14.3 15.8C14.2 16 14.2 16.3 14.3 16.5L15.4 21.3C15.1 21.6 14.9 21.9 14.6 22.2L9.7 22C9.5 22 9.2 22 9 22.2C8.8 22.3 8.6 22.5 8.5 22.7C8.4 22.9 8.3 23.1 8.3 23.4C8.3 23.6 8.3 23.9 8.4 24.1L10.4 28.6C10.2 29 10 29.3 9.8 29.7L4.9 30.5C4.7 30.5 4.4 30.6 4.2 30.8C4 31 3.9 31.2 3.8 31.4C3.7 31.6 3.7 31.9 3.7 32.1C3.7 32.3 3.8 32.6 4 32.8L6.9 36.8C6.8 37.2 6.7 37.6 6.5 38L1.9 39.7C1.7 39.8 1.5 39.9 1.3 40.1C1.1 40.3 1 40.5 1 40.7C1 40.9 1 41.2 1 41.4C1.1 41.6 1.2 41.8 1.4 42L5 45.5C5 45.9 4.9 46.3 4.9 46.7L0.7 49.3C0.5 49.4 0.3 49.6 0.2 49.8C0.1 50 0 50.3 0 50.5C0 51 0.3 51.5 0.7 51.7L4.9 54.3C4.9 54.7 5 55.1 5 55.5L1.4 58.9C1.2 59.1 1.1 59.3 1 59.5C0.9 59.7 0.9 60 1 60.2C1 60.4 1.2 60.7 1.3 60.9C1.4 61.1 1.7 61.2 1.9 61.3L6.5 63C6.6 63.4 6.7 63.8 6.9 64.2L4 68.2C3.9 68.4 3.8 68.6 3.7 68.9C3.7 69.1 3.7 69.4 3.8 69.6C3.9 69.8 4 70 4.2 70.2C4.4 70.4 4.7 70.5 4.9 70.5L9.8 71.3C10 71.7 10.2 72 10.4 72.4L8.4 76.9C8.3 77.1 8.3 77.4 8.3 77.6C8.3 77.8 8.4 78.1 8.5 78.3C8.6 78.5 8.7 78.7 9 78.8C9.2 78.9 9.5 79 9.7 79L14.6 78.8C14.9 79.1 15.1 79.4 15.4 79.7L14.3 84.5C14.2 84.7 14.2 85 14.3 85.2C14.4 85.4 14.5 85.7 14.7 85.8C14.9 86 15.1 86.1 15.3 86.2C15.5 86.3 15.8 86.3 16 86.2L20.8 85.1C21.1 85.4 21.4 85.6 21.7 85.9L21.5 90.8C21.5 91 21.5 91.3 21.7 91.5C21.8 91.7 22 91.9 22.2 92C22.4 92.1 22.6 92.2 22.9 92.2C23.1 92.2 23.4 92.2 23.6 92.1L28.1 90.1C28.5 90.3 28.8 90.5 29.2 90.7L30 95.6C30 95.8 30.1 96.1 30.3 96.3C30.5 96.5 30.7 96.6 30.9 96.7C31.1 96.8 31.4 96.8 31.6 96.8C31.8 96.8 32.1 96.7 32.3 96.5L36.3 93.6C36.7 93.7 37.1 93.8 37.5 94L39.2 98.6C39.3 98.8 39.4 99 39.6 99.2C39.8 99.4 40 99.5 40.3 99.5C40.5 99.5 40.8 99.5 41 99.5C41.2 99.4 41.4 99.3 41.6 99.1L45 95.5C45.4 95.5 45.8 95.6 46.2 95.6L48.8 99.8C48.9 100 49.1 100.2 49.3 100.3C49.5 100.4 49.8 100.5 50 100.5C50.2 100.5 50.5 100.4 50.7 100.3C50.9 100.2 51.1 100 51.2 99.8L53.8 95.6C54.2 95.6 54.6 95.5 55 95.5L58.4 99.1C58.6 99.3 58.8 99.4 59 99.5C59.2 99.6 59.5 99.6 59.7 99.5C59.9 99.5 60.2 99.3 60.4 99.2C60.6 99.1 60.7 98.8 60.8 98.6L62.5 94C62.9 93.9 63.3 93.8 63.7 93.6L67.7 96.5C67.9 96.6 68.1 96.7 68.4 96.8C68.6 96.8 68.9 96.8 69.1 96.7C69.3 96.6 69.5 96.5 69.7 96.3C69.9 96.1 70 95.9 70 95.6L70.8 90.7C71.2 90.5 71.5 90.3 71.9 90.1L76.4 92.1C76.6 92.2 76.9 92.2 77.1 92.2C77.3 92.2 77.6 92.1 77.8 92C78 91.9 78.2 91.7 78.3 91.5C78.4 91.3 78.5 91 78.5 90.8L78.3 85.9C78.6 85.6 78.9 85.4 79.2 85.1L84 86.2C84.5 86.3 85 86.2 85.4 85.8C85.6 85.6 85.7 85.4 85.8 85.2C85.9 85 85.9 84.7 85.8 84.5L84.7 79.7C85 79.4 85.2 79.1 85.5 78.8L90.4 79C90.6 79 90.9 79 91.1 78.8C91.3 78.7 91.5 78.5 91.6 78.3C91.7 78.1 91.8 77.9 91.8 77.6C91.8 77.4 91.8 77.1 91.7 76.9L89.7 72.4C89.9 72 90.1 71.7 90.3 71.3L95.2 70.5C95.4 70.5 95.7 70.4 95.9 70.2C96.1 70 96.2 69.8 96.3 69.6C96.4 69.4 96.4 69.1 96.4 68.9C96.4 68.7 96.3 68.4 96.1 68.2L93.2 64.2C93.3 63.8 93.4 63.4 93.6 63L98.2 61.3C98.4 61.2 98.6 61.1 98.8 60.9C99 60.7 99.1 60.5 99.1 60.2C99.1 60 99.1 59.7 99.1 59.5C99 59.3 98.9 59.1 98.7 58.9L95 55.6C95 55.2 95.1 54.8 95.1 54.4L99.3 51.8C99.5 51.7 99.7 51.5 99.8 51.3C99.9 51.1 100 50.8 100 50.6C100 50 99.7 49.5 99.3 49.3ZM71.2 84.1C69.6 83.8 68.6 82.2 68.9 80.6C69.2 79 70.8 78 72.4 78.3C74 78.6 75 80.2 74.7 81.8C74.4 83.4 72.8 84.4 71.2 84.1ZM69.8 74.5C69.5 74.4 69.1 74.4 68.7 74.5C68.4 74.6 68 74.7 67.7 74.9C67.4 75.1 67.1 75.3 66.9 75.6C66.7 75.9 66.6 76.2 66.5 76.6L65 83.6C60.4 85.7 55.3 86.8 49.9 86.8C44.4 86.8 39.2 85.6 34.5 83.4L33 76.4C32.7 74.9 31.2 74 29.8 74.3L23.7 75.6C22.6 74.4 21.5 73.2 20.5 71.9H50.4C50.7 71.9 51 71.8 51 71.5V60.9C51 60.6 50.8 60.5 50.4 60.5H41.7V53.8H51.2C52.1 53.8 55.8 54 57 58.8C57.4 60.3 58.2 65.1 58.8 66.6C59.4 68.3 61.6 71.8 64.1 71.8H79C79.2 71.8 79.3 71.8 79.5 71.7C78.5 73.1 77.3 74.4 76.1 75.7L69.8 74.5ZM28.5 84C26.9 84.3 25.3 83.3 25 81.7C24.7 80.1 25.7 78.5 27.3 78.2C28.9 77.9 30.5 78.9 30.8 80.5C31.1 82 30.1 83.6 28.5 84ZM17.1 38C17.8 39.5 17.1 41.3 15.6 41.9C14.1 42.6 12.3 41.9 11.7 40.4C11 38.9 11.7 37.1 13.2 36.5C13.6 36.3 13.9 36.3 14.3 36.2C14.7 36.2 15.1 36.3 15.4 36.4C15.8 36.5 16.1 36.8 16.4 37C16.7 37.3 17 37.6 17.1 38ZM13.6 46.3L20 43.5C20.7 43.2 21.2 42.7 21.4 42C21.7 41.3 21.6 40.6 21.3 39.9L20 36.9H25.2V60.3H14.8C13.9 57 13.4 53.7 13.4 50.3C13.4 48.9 13.5 47.5 13.6 46.3ZM41.7 44V37.1H54C54.6 37.1 58.5 37.8 58.5 40.7C58.5 43.1 55.5 44 53.1 44H41.7ZM86.6 50.2C86.6 51.1 86.6 52 86.5 52.9H82.7C82.3 52.9 82.2 53.1 82.2 53.5V55.2C82.2 59.3 79.9 60.1 77.9 60.4C76 60.6 73.9 59.6 73.6 58.4C72.5 52.1 70.6 50.7 67.6 48.4C71.3 46.1 75.1 42.6 75.1 38C75.1 33 71.7 29.9 69.4 28.4C66.1 26.2 62.5 25.8 61.6 25.8H22.8C28.1 19.9 35.2 15.8 43.3 14.3L47.9 19.1C48.1 19.4 48.4 19.6 48.8 19.7C49.1 19.8 49.5 19.9 49.8 19.9C50.2 19.9 50.5 19.8 50.8 19.7C51.1 19.6 51.4 19.4 51.7 19.1L56.8 14.2C67.5 16.2 76.6 22.9 81.8 32L78.3 39.9C77.7 41.3 78.3 42.9 79.7 43.5L86.4 46.5C86.5 47.7 86.6 49 86.6 50.2ZM47.8 10.2C49 9 50.9 9.1 52 10.3C53.1 11.5 53.1 13.4 51.9 14.5C50.7 15.6 48.8 15.6 47.7 14.4C47.2 13.8 46.9 13.1 46.9 12.3C46.9 11.5 47.2 10.7 47.8 10.2ZM82.6 38.1C82.8 37.7 83 37.4 83.3 37.2C83.6 36.9 83.9 36.7 84.3 36.6C84.7 36.5 85.1 36.4 85.4 36.4C85.7 36.4 86.2 36.5 86.5 36.7C88 37.4 88.7 39.1 88 40.6C87.8 41 87.6 41.3 87.3 41.5C87 41.8 86.7 42 86.3 42.1C85.9 42.2 85.5 42.3 85.2 42.3C84.8 42.3 84.4 42.2 84.1 42C82.6 41.4 81.9 39.6 82.6 38.1Z" fill="#808080"/>
</g>
</g>
<defs>
<clipPath id="clip0_1_9">
<rect width="100" height="100" fill="white" transform="translate(0 0.5)"/>
</clipPath>
</defs>
</svg>
