<svg width="100" height="101" viewBox="0 0 100 101" fill="none" xmlns="http://www.w3.org/2000/svg">
<path d="M50 20.5C36.7 20.5 28.3 27.2 25 40.5C30 33.8 35.8 31.3 42.5 33C46.3 34 49 36.7 52 39.8C56.9 44.8 62.6 50.5 75 50.5C88.3 50.5 96.7 43.8 100 30.5C95 37.2 89.2 39.7 82.5 38C78.7 37 76 34.3 73 31.2C68.1 26.3 62.4 20.5 50 20.5ZM25 50.5C11.7 50.5 3.3 57.2 0 70.5C5 63.8 10.8 61.3 17.5 63C21.3 64 24 66.7 27 69.8C31.9 74.8 37.6 80.5 50 80.5C63.3 80.5 71.7 73.8 75 60.5C70 67.2 64.2 69.7 57.5 68C53.7 67.1 51 64.3 48 61.2C43.1 56.3 37.4 50.5 25 50.5Z" fill="#848484"/>
</svg>
